<?xml version="1.0" encoding="utf-8"?>
<!-- Generator: Adobe Illustrator 14.0.0, SVG Export Plug-In . SVG Version: 6.00 Build 43363)  -->
<!DOCTYPE svg PUBLIC "-//W3C//DTD SVG 1.1//EN" "http://www.w3.org/Graphics/SVG/1.1/DTD/svg11.dtd">
<svg version="1.1" id="Capa_1" xmlns="http://www.w3.org/2000/svg" xmlns:xlink="http://www.w3.org/1999/xlink" x="0px" y="0px"
	 width="217.832px" height="192.414px" viewBox="0 0 217.832 192.414" enable-background="new 0 0 217.832 192.414"
	 xml:space="preserve">
<metadata><?xpacket begin="﻿" id="W5M0MpCehiHzreSzNTczkc9d"?>
<x:xmpmeta xmlns:x="adobe:ns:meta/" x:xmptk="Adobe XMP Core 4.2.2-c063 53.352624, 2008/07/30-18:05:41        ">
   <rdf:RDF xmlns:rdf="http://www.w3.org/1999/02/22-rdf-syntax-ns#">
      <rdf:Description rdf:about=""
            xmlns:xmp="http://ns.adobe.com/xap/1.0/"
            xmlns:xmpGImg="http://ns.adobe.com/xap/1.0/g/img/">
         <xmp:CreatorTool>Illustrator</xmp:CreatorTool>
         <xmp:ModifyDate>2006-09-07T10:03:12Z</xmp:ModifyDate>
         <xmp:CreateDate>2006-09-07T10:03:12Z</xmp:CreateDate>
         <xmp:Thumbnails>
            <rdf:Alt>
               <rdf:li rdf:parseType="Resource">
                  <xmpGImg:width>256</xmpGImg:width>
                  <xmpGImg:height>228</xmpGImg:height>
                  <xmpGImg:format>JPEG</xmpGImg:format>
                  <xmpGImg:image>/9j/4AAQSkZJRgABAgEASABIAAD/7QAsUGhvdG9zaG9wIDMuMAA4QklNA+0AAAAAABAASAAAAAEA&#xA;AQBIAAAAAQAB/+4ADkFkb2JlAGTAAAAAAf/bAIQABgQEBAUEBgUFBgkGBQYJCwgGBggLDAoKCwoK&#xA;DBAMDAwMDAwQDA4PEA8ODBMTFBQTExwbGxscHx8fHx8fHx8fHwEHBwcNDA0YEBAYGhURFRofHx8f&#xA;Hx8fHx8fHx8fHx8fHx8fHx8fHx8fHx8fHx8fHx8fHx8fHx8fHx8fHx8fHx8f/8AAEQgA5AEAAwER&#xA;AAIRAQMRAf/EAaIAAAAHAQEBAQEAAAAAAAAAAAQFAwIGAQAHCAkKCwEAAgIDAQEBAQEAAAAAAAAA&#xA;AQACAwQFBgcICQoLEAACAQMDAgQCBgcDBAIGAnMBAgMRBAAFIRIxQVEGE2EicYEUMpGhBxWxQiPB&#xA;UtHhMxZi8CRygvElQzRTkqKyY3PCNUQnk6OzNhdUZHTD0uIIJoMJChgZhJRFRqS0VtNVKBry4/PE&#xA;1OT0ZXWFlaW1xdXl9WZ2hpamtsbW5vY3R1dnd4eXp7fH1+f3OEhYaHiImKi4yNjo+Ck5SVlpeYmZ&#xA;qbnJ2en5KjpKWmp6ipqqusra6voRAAICAQIDBQUEBQYECAMDbQEAAhEDBCESMUEFURNhIgZxgZEy&#xA;obHwFMHR4SNCFVJicvEzJDRDghaSUyWiY7LCB3PSNeJEgxdUkwgJChgZJjZFGidkdFU38qOzwygp&#xA;0+PzhJSktMTU5PRldYWVpbXF1eX1RlZmdoaWprbG1ub2R1dnd4eXp7fH1+f3OEhYaHiImKi4yNjo&#xA;+DlJWWl5iZmpucnZ6fkqOkpaanqKmqq6ytrq+v/aAAwDAQACEQMRAD8A9U4q7FXYq7FXYq7FXYq7&#xA;FXYq7FXYq7FXYq7FWmZUUsxoqgliegAxSBZp8e/mD+YGsebtauLiaeRdMVyLGxqRHHGD8JKjYuRu&#xA;zfwzl9TqZZZX06Pu/YnYuLQ4REAeJXql1J/V3BKtA81+Y/L9wJ9H1CazYGpRGPpt7PGaow+YyrHm&#xA;nA3E05ms7N0+pjw5YRl9/wADzD6J/K386bLzS6aTq6JZa7T90VNIbig39Opqr/5H0jwG90muGT0y&#xA;2l975Z7Reyk9GDlxXPD9sff3jz+fn0/Ng8c7FXYq7FXYq7FXYq7FXYq7FXYq7FXYq7FXYq7FXYq7&#xA;FXYq7FXYq7FXYq7FXYq7FXYq7FUDrqs2iagqgszW0wAG5JMZyGT6T7nJ0ZrND+tH73w/nIv0S7FV&#xA;0UssUqSxO0csbBo5FJVlZTUEEbgg4g0xlESFHcF9V/k7+Yw83aEYL1x+nNOCpeDp6qHZJwPfo1O/&#xA;zGdJodV4saP1B8X9qOwvyObih/cz+nyPWP6vL3F6Dma8u7FXYq7FXYq7FXYq7FXYq7FXYq7FXYq7&#xA;FXYq7FXYq7FXYq7FXYq7FXYq7FXYq7FXYqoah/vBc/8AGJ/+InIy5Ftw/XH3h8MZyD9GuxV2Kp35&#xA;M81X3lbzFaazZ/EYW4zw1oJYW2eM/MdPA0OW4MxxzEg67tXs6GswSxT68j3Hofx0fY+j6tY6vpdr&#xA;qdhJ6tndxrLC/s3YjsR0I7HOqhMSAI5F8F1WmngySxzFSiaKMyTQ7FXYq7FXYq7FXYq7FXYq7FXY&#xA;q7FXYq7FXYq7FXYq7FXYq7FXYq7FXYq7FXYq7FUJq8ywaTezN9mKCVz22VCcjM1Et+ljxZYjvkPv&#xA;fDmcg/RbIvPPky+8qa21jPWW0lUTafd0oJoG+y1OzDoy9j7UOX6jAccq6dHVdkdqw1uHjjtIbSj/&#xA;ADZfq7ix3KHauxV7d/zjr56MF3L5RvZP3Nxyn0ssdlkArLEP9cDkPcHuc2/Zmoo8B+D537cdj8UR&#xA;qoDeO0/d0Pw5fLufQGbp8xdirsVdirsVdirsVdirsVdirsVdirsVdirsVdirsVdirsVdirsVdirs&#xA;VdirsVdirGfzN1FdO/L/AF+5J4k2csKnwaceiv8Aw0gzH1cuHFI+TuOwMHi67FH+mD/pfUfufG+c&#xA;s+9PrDXvJdl55/LfTLeSkd99St7jTrp+scrQqaMRU8X6P9/UDOlyYBlxAda2fE9H2rPs7tCchvDj&#xA;lGQ7xxH7R0+XV8r6hYXmn309jexNBd2ztFPC3VXU0I2zm5RMTR5vs+HNDLATgbjIWCh8Dar2N7dW&#xA;F7b3tpIYrq1kWaCQdVdCGU/QRhjIg2ObVmxRyQMJC4yFH3F9meSvNFt5n8s2OtQAKblP38Q/3XMv&#xA;wyJ9DA09s6rBlGSAkHwPtXs+Wj1EsMv4Tse8dD8k7y51zsVdirsVdirsVdirsVdirsVdirsVdirs&#xA;VdirsVdirsVdirsVdirsVdirsVdiryD/AJyS8wLa+V7LRUb99qU/qSLX/dNuKmo95GWnyzV9qZKg&#xA;I973XsJojPUyzHljjXxl+y3zhmifWH2t5MVl8n6ErAhhp9oCDsQRAmdbh+iPuD8+dqm9Xl/4ZP8A&#xA;3ReWf85Cfl4Lq0/xfp0X+k2yhNVjQVLxCipNt3j6N/k07Lmt7S01jjHMc3s/Yntvgl+VyH0y+jyP&#xA;WPx6efvfPmaR9Qdir2j/AJxv83G21a78sXEn7i/BubJSdhPGv7xR/rxiv+xza9l5qkYHq+f+3fZn&#xA;HijqYjeHpl/VPL5H/dPobN4+WuxV2KuxV2KuxV2KuxV2KuxV2KuxV2KuxV2KuxV2KuxV2KuxV2Ku&#xA;xV2KuxVpmVVLMQqqKknYADFIFvkP82POI81ecrq9gflp9tS1sPAxRk1f/ZuWb5EZzGsz+JkJHLo+&#xA;5+zfZf5PSRhL65eqXvPT4Cgw8AkgAVJ2AGYrvX3Lp9qLSwtrQGot4kiB/wBRQv8ADOviKAD8558n&#xA;HOUv5xJ+arPDDPDJBOiywyqUljcBlZWFGVgdiCMJFsITMSJA0Q+P/wAzPJUvlHzXc6cATYS/v9Ok&#xA;O/KByeKk7/EhBQ+NK985jV4PCnXTo+7dgdqjXaaOT+MbS/rD9fP7GKZjO6RuiatdaPrFnqtqaXFl&#xA;Mk8fgSjV4n2PQ5PHMxkJDo42r00c+KWKX0zBHzfbGmajbalp1rqFq3K2vIknhbxSRQw/A51kJCQB&#xA;HV+fNRgliySxy+qJIPwROSaXYq7FXYq7FXYq7FXYq7FXYq7FXYq7FXYq7FXYq7FXYq7FXYq7FXYq&#xA;7FXj359fmUml6e/lbS5f9yV6lNQkU/3Nu4+x/ryj7l+YzV9o6rhHAOZ5vd+xvYJzTGpyD93A+nzl&#xA;3+6P3+585Zon1dkf5daMdZ886Jp/Hkkl0kkq+MUJ9WX/AIRDl+lx8eSI83VduarwNHlyd0DXvOw+&#xA;0vsvOqfAnYq86/PPyb/iHydJeW6ctR0bldQU6tFT9/H9Kjl81AzB7QwceOxzi9V7Idq/ldWISP7v&#xA;L6T7/wCE/Pb3F8rZzj7Q7FX09/zjz5h/SXkc6dI1Z9ImaEDv6Mv7yMn6Syj5Z0HZuXix1/NfHvbb&#xA;ReFrPEHLLG/iNj+g/F6hmxeOdirsVdirsVdirsVdirsVdirsVdirsVdirsVdirsVdirsVdirsVdi&#xA;rz781/zUsvJ+ntZ2bLN5huUP1aHYiFTt60o/4ivc+2YOs1gxCh9T1Hs37Oz10+Oe2CJ3P87+iP0n&#xA;p73yxeXl1e3c13dytPdXDmSaZzVmdjUknOdlIk2eb7NixRxxEIioxFAKOBse5f8AONflN2ub/wA0&#xA;XCfu41NlY1A3dqNM4rv8I4qCPFhm47Lw85n3B859vO0gIw00TufVL/ej7z8A98zcvmbsVcQCCCKg&#xA;7EHFXx1+ZvlU+WPOmo6aicLQv69j4ehN8SAV68N0+a5y2rw+HkI6PvPYHaP5vSQyE+qql/WHP58/&#xA;ixbMd3L1j/nHDWzZ+c7nS2akWqWzcV8Zbc+ov3J6mbLsvJWQjvDxPt1pOPSRyDnjl9ktvv4X0tm/&#xA;fI3Yq7FXYq7FXYq7FXYq7FXYq7FXYq7FXYq7FXYq7FXYq7FXYq7FXmf5rfnDZeVYn0rSilz5hddw&#xA;fijtgw2eTxfuqfSduuv1mtGP0x+r7nr/AGc9l560jLl9OD7ZeQ8u8/Ly8yXt9eX13NeXkz3F1Oxe&#xA;aaQlmZj1JJzn5SJNnm+v4cMMcRCA4Yx5AKGBsTjyn5X1PzPrtto+nJWadqySkVSKIfblf/JUfedh&#xA;uRluHCckhEOB2l2hj0eGWXIdh9p6Ae/9vJ9i+XdBsNA0Sz0ewTha2cYjTxY9WdqftOxLH3OdTixi&#xA;EREcg+Da7WT1OaWWf1SN/s+A2THJuK7FXYq8T/5yX8uLLpmmeYYkHq2shs7pgNzHLV4yT4K6sP8A&#xA;ZZqe1cVxEu59C9gtdw5J4CdpDiHvGx+Yr5Pn3NI+oJ/5A1b9E+ddEvy3FIbuISt4Ru3CT/hGOXaa&#xA;fDkifN1nbWm8fR5Yd8DXvG4+19n51b4A7FXYq7FXYq7FXYq7FXYq7FXYq7FXYq7FXYq7FXYq7FXY&#xA;q7FXj/5u/nVHopm0Dy5IJNXHwXd8KMlv4onZpfHsvz6avW6/g9MPq+57v2Z9lDqKz6gVi6R6y8z/&#xA;AEfv93PznLLLLK8srtJLIxaSRiWZmY1JJO5JOaIm31WMREUNgFuLJHaJomqa5qkGmaZA1xeXDcY4&#xA;1/FmPRVUbknpk8eMzNDm42r1ePT4zkyHhhH8fN9X/lp+W+m+StJMSEXGq3IBv72n2iOkcddxGvbx&#xA;6nwHSaXSjFHz6vinb3buTtDLZ9OOP0x/SfM/ZyZjmU6F2KuxV2Ksb/MjRBrfkbWtP4lpHtnlgUdT&#xA;LB+9jH0ugGUarHx45Dydt2Fq/wAvrcWTpxAH3S2P2F8a5yr744Eggg0I6HFD7e8vaiNT0DTdSBr9&#xA;dtYbiv8AxljD/wAc67FLiiD3h+eNbg8HPPH/ADJSHyNJhk3FdirsVdirsVdirsVdirsVdirsVdir&#xA;sVdirsVdirsVdirxH84vzpS2Wfy55YnrdGseoalGdo+zRQsP2/5mH2e2/TUa3XV6Ic+pfRPZf2UM&#xA;61GpHp5xievnLy7h167c/P8A1zSvpzsVTvyl5O13zXqi6dpEHqSfammeqxRJ/NI9DQfie2XYMEsk&#xA;qi67tLtTDosfiZTQ6DqfIB9Ufl/+XGh+S9O9G0H1jUJQPrmouoEkh68VG/BK9Fr86nfOi02ljiG3&#xA;PvfGe2u3c2vyXP0wH0x6D9Z8/uZXmS6R2KuxV2KuxVxAIoemKviPzLpn6K8xappg+zZXc1up33WO&#xA;QqDv4gZyWaHDMjuL9D6DUeNghk/nwifmEtyty31t+Suo/Xvy10diayW6yWzitaelKyqP+A450ugl&#xA;eEPh/tXg8PtDJ3SqXzA/TbOMzHnXYq7FXYq7FXYq7FXYq7FXYq7FXYq7FXYq7FXYq7FXgv5y/nOX&#xA;M/lvyzcUjFY9R1KI/a7NFCw7fzMOvQbddNrtd/BD4l9L9lvZWq1GpG/OMD/upfoHzeF5p30d2Ks1&#xA;/Lj8rta853vJAbTRoWAutQYbf8Y4gftv+C9+wOXpdJLKe6Pe8/277Q4dBDf1ZTyj+k9w+/p1r1H5&#xA;Y8raJ5Z0qPTNHtxBbp8Tt1kkc9ZJH6sx/DoKCgzosWKOMVEPjfaHaObV5Tkym5fYB3AdB/ad02yx&#xA;wXYq7FXYq7FXYq7FXyZ+eFgLP8zNW4rxjuPRuE9/UhTmf+DDZzXaEazF9t9kc3idnY++Nj5SNfZT&#xA;BMw3pX0d/wA40al63lXU9PJq1peeqB4JPGoA/wCCibN72VO4EdxfKPb3Bw6mGT+dCvjE/tD2DNo8&#xA;I7FXYq7FXYq7FXYq7FXYq7FXYq7FXYq7FXYq7FXh353fm6YBP5V0Cb98QY9VvUO6dmgjI/a7Oe3T&#xA;rWmo1+tr0R+P6n0X2S9meKtTnG3OEe/+kf0fN4FmlfTXYq9I/Kf8o7vzdcDUtR523l6FqNINnuWU&#xA;7xxHso/af6BvWmfo9Ecps/T97yftJ7TR0MfDx+rOflHzPn3D4nbn6e0/T7HTrKGysYEtrSBeEMEQ&#xA;Cqo9gM6CMREUOT49mzzyzM5kykeZKIyTU7FXYq7FXYq7FXYq7FXzf/zktYmPzdpt6BRLmxEdfF4p&#xA;XJ/4WRc0XasfWD5PrHsFmvSzh/NyX8wP1F5Dmre6eu/842az9V8232lu1E1G15IPGW3bko/4B3zZ&#xA;9lzqZHeHhvbzS8eljkHPHL7JftAfSOb58mdirsVdirsVdirsVdirsVdirsVdirsVdirsVeV/nX+a&#xA;f+HLJtC0iX/c7dp+9mUittC37X/GRx9nwHxeGa7X6vwxwx+o/Y9p7J+zv5qfjZR+5idh/OP6h1+X&#xA;e+ZiSxJJqTuSepOc++ugNYpejflH+VM/m+++v6irxeXrVqSuPha4kFD6KHqB/Ow+Q33GdotGcps/&#xA;S8p7Te0cdDDgx755cv6I/nH9A/Rz9R2lpa2drFa2sSwW0CiOGGMBURFFAqgdAM6KMQBQfG8mSWSR&#xA;lI3I7klVwsHYq7FXYq7FXYq7FXYq7FXiv/OTmml9H0TUgBS3uJbZj3/foHH/ACYOantWHpifN9B/&#xA;4H+esuXH/OiJf6U1/vnz3mkfUU68l6+fL/mvS9Y34Wk6tMB1MTfBKB842YZbgycExLudf2rovzWm&#xA;yYv50dvfzH20+0o5EkjWSNg8bgMjA1BBFQQc6wF+fpRINHmuxQ7FXYq7FXYq7FXYq7FXYq7FXYq7&#xA;FXYqxD8zfzAs/Jnl9ro8ZNTueUem2x/akA3dh14JWrfQO+Yur1IxRvr0d72B2LPX5+HljjvI+Xd7&#xA;z0+fR8kahf3mo3099eytPd3LmSaZzUszGpOczKRkbPN9ww4YYoCEBUYigEPgbWXflr+X175014Wi&#xA;FodOtqSajdgfYjJ2Va7c3pRfpPbMrS6Y5ZV06uj7e7ahoMHGd8ktojvPf7h1+XV9b6Xplhpen2+n&#xA;afCtvZ2qCOCFOiqP1k9STuTvnSwiIihyfD9RqJ5shyTPFORslE5JpeGXX5L6N+ZHnHzN5o1W+1Oz&#xA;0+a7jttHaynjiSaO0to7eaULJFL8BmjbgwNGG/ShJVW/6FL8hf8AV81//pKt/wDsmxtXf9Cl+Qv+&#xA;r5r/AP0lW/8A2TY2qJ/JO1k8p+dfOf5dPdXFzZac1tqOjPdMHkMFxGPVPIBRsxQfCAK1wK9kxV2K&#xA;uxV2KuxVhf5x6E2s/l3q0Ma8ri1QXkPiDbnm9PcxhgPnmJrcfFiPzeg9l9YMGvxk/TI8J/zth9tP&#xA;kXOZfcnYq+r/AMj/ADMut+QrOJ35Xelf6FcA9eMY/dH5ekVHzBzpNBl48Q7xs+Ke13Z/5fWyIHpy&#xA;eofH6vttn+ZrzDsVdirsVdirsVdirsVdirsVdirsVQWtaxp+jaVc6pqEohs7RDJK/eg6ADuzHYDu&#xA;chkmIRMjyDkaTS5NRljjxi5yNB8f+evOWo+bvMM+rXlUjP7uztq1WGEE8UHv3Y9znMajOcsuIvu3&#xA;Y/ZWPQ4Bihz/AIj3nv8A1eTHsodojtE0XUNb1a10rTo/VvLtxHEnbxLMeyqASx7DJ48ZnIRHMuNq&#xA;9Vj0+KWXIahEWfx59H2F5I8n6d5S8vW+kWQDMo53VxSjTTsBzkP3UA7CgzqMGAY48IfCe1+1Mmtz&#xA;nLP4D+bHoP195T7LnWPFP+clvzd1DybpFroWiOI9Y1mOUy3PVre1A4Fk6Ukdj8LduJ70xV4dqX/O&#xA;T/5pTwxWulTWehWUEaww21jbIQsaKFVQbj1yKAdqYUNa35y/5yOm8sXF3q82qr5durcfWLuS1WOB&#xA;oLgBQfVEa0DhwAQe+Ks90T/nEvU9S0aw1GXzlPaS3ltFcPaPYsXiaVA5jY/WxuhNDtjaUX/0Jxd8&#xA;/U/xxJ6lOPP9HtWnWlfreNq3/wBCd3//AFPUv/SA3/ZXjarZv+cPdUETmHzw7zBSY0eydFLU2DML&#xA;pyoJ78T8sbVmv/OLfm69138uWstQmaa90S6ez5SEtJ6BVZIuRO/w8mQey4Few4q7FWnRHRkdQyMC&#xA;GUioIOxBBxSCQbD4z8/+VpfK/my/0hlIgjkL2bmp5W8nxRGvc8dj7g5yupw+HMxffOxe0RrNLDL1&#xA;I9X9Yc/2eTHsodq9B/JPzsvlnzckV3Jw0vVQttdE/ZR6/uZT/qsaE9gTmboM/hz35F5f2s7J/N6U&#xA;mI/eY/UPMfxD4j7QH1bnSPirsVdirsVdirsVdirsVdirsVdirsVfNf59fmKda1Y+XNOlrpWmufrT&#xA;qdprldjv3WL7I96nwzQdo6rjlwDkPvfW/Y3sP8vi/MZB+8yDb+jH9cufurzeS5rXt3Yq+lPyD/L0&#xA;aPo3+JL+Omp6pGPqyMBWK1O6095dmPtT3zf9nabgjxnmfufJPbPtvx8v5eB/d4zv5y/47y99+T1r&#xA;Nk8Q7FXzR/zmV5ZBt/L/AJnjQ1V30y5k5inxAzwKEpX9mWpwhXn35LfkLD+Y+i6hqc2stpgsrkWy&#xA;xpAJuX7sOWJLx0+1ih6f5OstOm8yXWjeYvzCg8weSfJ0VpI1vOtvZ2hulLrbxO4dxNHbiGrVahfi&#xA;N6HFLPNV/wCckvyd05mT9OfW5VrVLWCeUGng/ARn/gsCpOv/ADlj+U5m4FtQVaV9U2w49emzlvww&#xA;0qFu/wDnLz8roLl4orTVrqNDRbiG3gCPt1USzxv96jBSqX/Q4f5Z/wDVs1r/AJEWn/ZVhpXmv5cf&#xA;nh5C8ked/NV9Z2ept5Y19o7i1tRFb/WIJ0Z2KcfX4emPWcAh6041HfFXpX/Q4f5Z/wDVs1r/AJEW&#xA;n/ZVjSu/6HD/ACz/AOrZrX/Ii0/7KsaVw/5zD/LMkD9G60Pf0LX/ALKcaVMfze8vad568kWPnTy4&#xA;wu3tofXidB8U1m27qQaHlEatxO4+IUrmt7R0/HHiHOP3PaexvbI02fwZn93l+yXT58vk+dM599ed&#xA;ir6e/I38xl8w6INF1CWutaYgUFj8U9stFWT3ZNlb6D3zoOz9Vxx4T9Q+58e9r+w/yubxsY/dZD/p&#xA;Zd3uPMfEdHqGbF452KuxV2KuxV2KuxV2KuxV2KvO/wA6vzBPlby79UsZOOtaoGjtiD8UUXSSbbuK&#xA;0X337Zg6/U+HCh9Req9lOxPzmfimP3WPc+Z6R/X5e98q9c5x9odirOfyg8iHzb5qjS4QtpOn8bjU&#xA;T2YV/dw/89GFD/khszNFp/Env9I5vOe0/bH5LTExP72e0f0y+H30+tQAAABQDYAZ0r4g7FXYqxD8&#xA;z/yz0f8AMPQYdH1S5uLWK3uFuopbZlDB1Rk3VwykcZD2riry7z75csvyX/JHWLDy7d3M1zrl4kBv&#xA;ZyvqJ9YQK/HgFA/cwsAetTWvTCr5JxQ7FXu9t/ziB57uLaK4TWNLCzIsigtcVAYVFf3WNpRX/OPn&#xA;5N+V/Meo+aofM+nrrFhpNwlnZahFNcwwyTI0gl9IxPCXHFUbfoCPHFXtH/QtX5J/9S5/0+3/AP1X&#xA;wK7/AKFq/JP/AKlz/p9v/wDqvirv+havyT/6lz/p9v8A/qvirv8AoWr8k/8AqXP+n2//AOq+KsY/&#xA;Mz/nHX8rrHyHrmpaJo72ep6fZzXdvLHdXMm8CGQgrNJKpBC+FcKtf84h+YTf/l9faNK3J9HvW9NT&#xA;0WC6X1FH/I0SnAVDFPzq/LFvLOqnV9Mi/wBwF+5IRBQW0zbmKg2CN1T/AIHsK89r9J4cuIfSfsfY&#xA;vZT2gGrxeFkP76A/0w7/AH9/z67cxzXvYI/Qtc1LQ9WttV02Uw3lq4eNux8VYd1YbEeGTx5DCQkO&#xA;YcbWaTHqMUsWQXGQ/HxfXnkPzvpnnDQYtSsyEnWiXtoTVoZabqfFT1U9x9OdPp9QMsbD4Z2z2Tk0&#xA;Oc457j+E94/HMMjy91LsVdirsVdirsVdirsVQ2p6lZ6Zp9zqF7IIrS0jaWaQ9lQVP0+AyM5CIJPI&#xA;N2nwTzZI44C5SNB8ced/Nl75r8yXesXNVWVuFtCTX0oFJ9OP6B18TU5y2ozHJMyL712R2bDRaeOK&#xA;PTme+XU/jokOUuybVWZgqgszGiqNySewxQTW5fXv5V+SU8peUrezlQDUrn/SdRbqfVcD4K+Ea0Xw&#xA;rU986fSYPDgB16vhftF2sdbqjMf3cfTH3d/x5/Z0ZhmU6J2KuxV2KsD/ADx8rDzJ+WOtWKWpu7yC&#xA;L63YxqwRhNB8QZSdvs8tu42xV8C4UPp7SP8AnD7SL3RbK8m8xXUN1c20c0kf1dOKPIgYrQsDRSfH&#xA;G0pf5n/Jbzto/mLQPL1j+YV7fXGuTNHHalriF4rWFC887ATyLwjQUHTkxAHeir6Q8qeVtD8peXbX&#xA;RNJiFvp9klOTEcmbq8sjbVZjux/hgVSvfPvkWxcpe+Y9LtXU0ZZr23jIPgQzjwxVAx/mz+V8k7Qp&#xA;5s0nmvWt5AqnemzFgp+g4qmtp5u8qXhAtNasLkmoAiuYX6bn7LHFU2BDAMpqDuCOhGKqdzbQXVtL&#xA;bXCCSCdGjmjboyOOLKfmDir51/JTyzqP5a/nTrfk6+LHT9Zs2n0e6I+G5W2k5x/7NInkDjsR4UOF&#xA;X0Jqulafq2nXGm6jCtxZXSGOeFq0Kn3G4I6gjcHcZCcBIUeTfptRPBkGTGeGcTYL5N/Mz8t9R8la&#xA;t6ZLXGk3JJsL2nUf77kpsJF/EbjwHNavSnFL+j0fbOwO3sfaGK/pyx+qP6R5H7OXvhuYrv2ReRfO&#xA;+q+T9cj1KxPOJqJeWhJCTRV3U/5Q6q3Y/SMv0+olilYdV2x2Ti12E458/wCE9QfxzD648s+ZdJ8y&#xA;aNBq2ly+pazjodnRx9pHHZl7/wBM6bFljkjxR5Ph2v0GXSZTiyipD7fMeSaZY4bsVdirsVdirsVd&#xA;irwj/nIvz1/deULGT+W41Ur/AMFDCf8Aibf7HNN2nqP8mPi+k+w3Y/PVzHlD/fS/3o+LwjNO+kux&#xA;V6d+Qnksa75s/Sl0nLT9E4TkHo9wxPor/sSpf6B45sOzsHHPiPKLx/tl2r+W0vhR+vLt7o/xfq+J&#xA;7n1BnQvjrsVdirsVdiqC1yxlv9F1CwiZVlu7aaCNnrxDSRlATQE0qcVfDUn/ADj1+cSStH/huZ+L&#xA;FeaywFTQ0qD6nTCh9ded/Oh/L38sf0xqCrNqVpawW0MFdpb1kCKtRT4QwLNT9kGmBL4rt/zT8/we&#xA;az5sTWZX8wFXjF7Msc3GOSvJEjlV4lTfZVWg7YUJb5g85ebPMcxm13V7vUWJqFuJXdF3rRIyeCiv&#xA;ZQMVSfFXYq7FURaajqFm3K0uZbdutYnZDX/YkYqyPTvzX/MzTqfVPNGpqq/Zje6llQdT9iRmXv4Y&#xA;qmDfnb+Yl15m0HzBqupfpG78uyM9irxxRDhJxWaNzCkZYSovFid6Yq+wPyg/NfTPzG8vSahBB9S1&#xA;GzcRajp/P1PTZgTG6tRapIAabdQR2rgSyvXtB0rXtKn0vVIBcWdwKOh6g9mU/ssvY5DJjjOPDLk5&#xA;Wj1mXTZRkxnhlH8fJ8o/mR+W+q+S9V9KWtxpdwSbG+A2YdeD0+zIvcd+ozm9VpZYpeXQvtfYXbuL&#xA;X4rHpyR+qP6R5MPzFd6y38uvzE1XyZrAuICZtNnIGoWJPwyIP2lr0kX9k/QdsydLqZYpWOXV0fbn&#xA;YeLX4uGW2QfTLu/Z3vrLQtd0vXdLg1TS51uLO4WqOOoPdWHVWU7EHOlx5IzjY5PiWs0eTTZDjyDh&#xA;nH8fJH5NxnYq7FXYq7FUp82eY7Py35evdau947SMssdaF5D8MaD/AFmIGVZsoxxMj0c7s3Qz1eeO&#xA;GPOR+Q6n4B8Y6rqd7qupXOpXsnq3d3I0sz+LMa7eAHYZys5mRJPMvvum08MOOOOAqMRQQuRb21Vm&#xA;YKoJYmgA3JJxQTT7C/LDyevlTyfZ6c6gX0o+sagw7zyAcl/2AAT6M6jSYPDxgder4T7QdqfndVLI&#xA;PoHpj/VH6+fxZXmS6R2KuxV2KuxV2KuxV88f85lvfDyx5dRAfqBvZTOd6esIv3Nf9iZMIV8oYodi&#xA;rLfynuPLdt+Yeiz+ZhbtoSSub4XkYlg4+k4HNGDAjlTtir6m/wAT/wDOKv8Avny1/wBw6D/qjil3&#xA;+J/+cVf98+Wv+4dB/wBUcVeAf85D3/5d3vmnTpPIq2CaatiFuRpsCW8fr+tITyVEjBbhx3p0xQ8r&#xA;xV2Kve/+cOZbwef9YiQt9TfSmaYfs+otxCIyfejPT6cSl9d4FQGu6FpWu6ZNpmq263NnOKPG1RQj&#xA;oykbqw7EZDJjjMVLk5Oj1mXTZBkxHhmHyp+Zf5Zar5L1LcNc6LcMRZX9PmfSlpssgA/2Q3HcDnNV&#xA;pJYj3x732nsDt/Fr8f8ANyx+qP6R5fdyPQmF5iPQMx/Lb8ydU8l6p6kfK40m4YfXrGuzDp6kddlk&#xA;Uff0PtlaXVSxS/o9Q6Ht7sHH2hjo+nLH6ZfoPk+rNA8waR5g0uHVNJuFubObow2KsOqOp3Vh3Bzo&#xA;8eSMxceT4rrdFl02Q48o4ZD8WPJMcscV2KuxV2Kvnn/nI3zn9b1O38rWslYLGlxf0Oxndf3aH/UQ&#xA;1/2Xtmj7Tz2RAdOb6l7C9lcGOWpkN57R/qjmfifueL5qn0B2KvRvyK8n/p/znHeXEfPT9GC3U5P2&#xA;TLX9wh+bAt8lOZ/Z+DjyWeUXlPbDtP8ALaQwifXl9I938R+W3xfVGdE+MOxV2KuxV2KuxV2KuxVg&#xA;f55+XNQ8w/lbrenabaRXmo8I5bWOUJsYpUaRkL7K/oh+JxV8C4UPdf8AnGz8ovJ/nmy1y88yW8tw&#xA;tlLBDapHM8QBdXZyeFCei03xS9juf+cVvyhmj4R2l3bt/vyK6kLdP+LPUX8MFqxbWf8AnDXyzLU6&#xA;N5gvLM9Qt3FFdD5fu/qxw2rBdY/5xA/MO1LNpuoadqMYNFUvJBKR48XQoP8Ag8bVhmrf84/fm9pU&#xA;Uk1z5dleCJS7yQSwTgKBUmkUjNt8sUPPcVdir7P/AOcVfLH6K/Lk6hc6WbHUdTuHd7iQMJLi3T+5&#xA;chvsqOTBQOv2u+Apez4q7FUJq+kabrGmz6bqUC3NlcrwmhfoR1BBG4IO4I3B3GRnASFHk36bU5MG&#xA;QZMZ4Zx5H8fgvlT8z/yw1LyXqXNOVzodyxFlekbg9fRmpsJAPoYbjuBzmr0hxGx9L7T7P+0GPtDH&#xA;R9OaP1R/30fL7uR6EwfMN6Jln5d/mJq3kvVhcW5M+nzkC+sSaLIo/aX+V1/Zb+GZOm1MsUrHLqHS&#xA;dudh4tfi4ZbTH0y7v2d4fV/lzzJo/mLSotU0m4E9rLsezI9ASki/sstdxnSYssZxuPJ8U12gy6XK&#xA;ceUcMh9vmO8JnljhuxVK/NHmC18veX77WbreKyiMgStOb9EQHxdyFyvNkEImR6OZ2foparPDDHnM&#xA;17u8/Abvi3UdQu9Rv7i/u3Mt1dSNNPIe7ueRP3nOUlIyJJ5l+gcGGOKEYQFRiKHwQ+RbXYq+uPyf&#xA;8n/4Y8l2sMycdQv6Xl8CKFXkUcYzXpwSgI/mrnTaLB4eMd53fDvaftT85q5EfRD0x9w6/E/ZTNsy&#xA;3nnYq7FXYq7FXYq7FXYqlXmwFvKusgCpNjcgAda+i2KvzewofVP/ADhlJXRPM8fEjjc2zcux5RuK&#xA;D5ccSl9G4FdirsVdir4T/Pr8sLnyN50uDbwkeX9UdrnSpgDwUMavb1/miJoP8mhwoea4q/RH8s9Y&#xA;XWPy98uakCWa40629Unr6ixhJP8Ah1OBLJcVdirsVQmr6RpusabPpupQLc2VyvCaF+hHUEEbgg7g&#xA;jcHcZGcBIUeTfptTkwZBkxnhnHkfx+C+UvzP/LPUPJWqjiWudFuiTY3pG47+jLTYSKPoYbjuBzes&#xA;0pxS/ol9q9n+34doYv5uaP1R/wB8PL7uR6EwnMR6FlHkDz/rHk3WBeWZ9Wzlot9YsaJKg/4i6/st&#xA;2+VRmRptTLFKxydN212Li1+LgntIfTLqD+rvD6v8reatF8z6THqmkT+rA/wyIdpI3AqY5F7MP7Rt&#xA;nSYc0ckbi+Kdo9nZtHlOPKKl9hHePJN8tcF4R/zkp5s/3g8rW7+F7fAfSsKH/hmI+WabtTNygPeX&#xA;0n2D7N+vUyH9GP8Avj9w+bwjNO+kuxVn35LeTP8AEvnKFriPnpml0u7yoqrFT+6iPb43G47qDmbo&#xA;MHiZN+QeZ9q+1fymkIif3mT0x/SfgPtIfWGdI+JuxV2KuxV2KuxV2KuxV2KuxVjT/lj+WrsXfyno&#xA;zMxJZjp9qSSepJ9PFU20fQNC0S3a20bTrXTLZ29R4LOGO3RnIA5FY1UE0A3xVH4q7FXYq7FUJqmj&#xA;6Tq9o1lqtlb6hZsQzW11Ek0RI6EpIGXb5Yqkf/Krvyz/AOpR0X/uHWn/AFTxVkVpaWtnbRWtpClv&#xA;awKI4IIlCRoiiiqiqAFAHQDFVXFXYq7FXYql3mHy/pfmDSLjSdTiE1pcLRhtyVv2XQmtGU7g5Xkx&#xA;iceE8nL0WtyabKMuM1KP4o+RfIPnjybqXlHzBNpF6fUC/vLW5Aos0LE8XA3p0ow7Go365zOowHFL&#xA;hL7p2R2pj12AZYbdCO49R+rySDKHZsk8i+etY8nawt/YNzgei3lmxIjmjB6HwYfst2+VQb9PqJYp&#xA;WHU9sdj4tdi4J7EfTLrE/q7x1fWXlTzXo/mjR4tV0qXnC/wyxNQSRSAfFHIvZh+PUbZ0uHNHJHii&#xA;+Jdpdm5dHlOLKKI+RHeHyF5y1+bX/NOp6vKxYXU7tFXtEp4xL/sUAGcxnycczLvfc+y9GNNpoYh/&#xA;DEX7+v2pNlTsHYq9W/LP83/L/kvy+bD9DzXF9PK015drIi8zWiKKivFUpt41PfNlpdbDFGq3eK7f&#xA;9mM/aGfj8SMYAVEUdu/5n9DLv+hndG/6sdx/yOT+mZP8rR/ml0f/ACb/AC/6rH5F3/Qzujf9WO4/&#xA;5HJ/TH+Vo/zSv/Jv8v8AqsfkXf8AQzujf9WO4/5HJ/TH+Vo/zSv/ACb/AC/6rH5F3/Qzujf9WO4/&#xA;5HJ/TH+Vo/zSv/Jv8v8AqsfkXf8AQzujf9WO4/5HJ/TH+Vo/zSv/ACb/AC/6rH5F3/Qzujf9WO4/&#xA;5HJ/TH+Vo/zSv/Jv8v8AqsfkXf8AQzujf9WO4/5HJ/TH+Vo/zSv/ACb/AC/6rH5F3/Qzujf9WO4/&#xA;5HJ/TH+Vo/zSv/Jv8v8AqsfkXf8AQzujf9WO4/5HJ/TH+Vo/zSv/ACb/AC/6rH5F3/Qzujf9WO4/&#xA;5HJ/TH+Vo/zSv/Jv8v8AqsfkXf8AQzujf9WO4/5HJ/TH+Vo/zSv/ACb/AC/6rH5F3/Qzujf9WO4/&#xA;5HJ/TH+Vo/zSv/Jv8v8AqsfkXf8AQzujf9WO4/5HJ/TH+Vo/zSv/ACb/AC/6rH5F3/Qzujf9WO4/&#xA;5HJ/TH+Vo/zSv/Jv8v8AqsfkXf8AQzujf9WO4/5HJ/TH+Vo/zSv/ACb/AC/6rH5F3/Qzujf9WO4/&#xA;5HJ/TH+Vo/zSv/Jv8v8AqsfkXf8AQzujf9WO4/5HJ/TH+Vo/zSv/ACb/AC/6rH5F3/Qzujf9WO4/&#xA;5HJ/TH+Vo/zSv/Jv8v8AqsfkXf8AQzujf9WO4/5HJ/TH+Vo/zSv/ACb/AC/6rH5F3/Qzujf9WO4/&#xA;5HJ/TH+Vo/zSv/Jv8v8AqsfkXf8AQzujf9WO4/5HJ/TH+Vo/zSv/ACb/AC/6rH5F3/Qzujf9WO4/&#xA;5HJ/TH+Vo/zSv/Jv8v8AqsfkXf8AQzujf9WO4/5HJ/TH+Vo/zSv/ACb/AC/6rH5F3/Qzujf9WO4/&#xA;5HJ/TH+Vo/zSv/Jv8v8AqsfkWHfmd+bPlzztosdr+h5rbUbVxJZXjSI3DkQJEYAVKuo+8DMXVayG&#xA;WNVu772f9m9R2fmMvEjLHIVKNHfuPvH3W8szXPZuxVln5Z+d73yn5ntrpJSNOuHSLUoCfgeFjQsR&#xA;/NHXkp+joTmTpdQccwenV0nb/ZMNbppRI/eRFwPn+o8ixzUrCfT9RurC4HGe0leCVTtR42Kt+Iyi&#xA;UTEkHo7XBmjlxxnH6ZAEfFDZFudirsVdirsVdirsVdirsVdirsVdirsVdirsVdirsVdirsVdirsV&#xA;dirsVdirsVdirsVdirsVdiqL0jTbjVNVs9NtxWe8mjgjH+VIwUfryUImUgB1aNTnjhxSyS5QiT8n&#xA;uP54flLe3l3L5p0CAzyuAdTsYxVyVFPWjUfa2+0o+fjm31+jJPHH4vnXsj7SwxxGmzmgPokeX9U/&#xA;oPw7ngZBBIIoR1GaZ9Ldil2KuxV2KuxV2KuxV2KuxV2KuxV2KuxV2KuxV2KuxV2KuxV2KuxV2Kux&#xA;V2KuxV2KuxV2Ku64q9//ACK/Km8sLhPNWuwmCfiRplnIKOoccWmkU7qSpoo96+Gbrs/RmJ45fB8x&#xA;9sPaOGWJ02E3H+OQ5f1R+n5d72/Nu+dvNPzB/wCVH/Wpf8UfU/0lv6v1f1PrXLt6n1X46/6+a/U/&#xA;l79dX9v2PXdifyzwj8tx+H0uuH4ce3+lYJ/1jN/y9f8AT7mH/gnn9r0n/Nxf0f8ApW7/AKxm/wCX&#xA;r/p9x/wTz+1f+bi/o/8ASt3/AFjN/wAvX/T7j/gnn9q/83F/R/6Vu/6xm/5ev+n3H/BPP7V/5uL+&#xA;j/0rd/1jN/y9f9PuP+Cef2r/AM3F/R/6Vu/6xm/5ev8Ap9x/wTz+1f8Am4v6P/St3/WM3/L1/wBP&#xA;uP8Agnn9q/8ANxf0f+lbv+sZv+Xr/p9x/wAE8/tX/m4v6P8A0rd/1jN/y9f9PuP+Cef2r/zcX9H/&#xA;AKVu/wCsZv8Al6/6fcf8E8/tX/m4v6P/AErd/wBYzf8AL1/0+4/4J5/av/Nxf0f+lbv+sZv+Xr/p&#xA;9x/wTz+1f+bi/o/9K3f9Yzf8vX/T7j/gnn9q/wDNxf0f+lbv+sZv+Xr/AKfcf8E8/tX/AJuL+j/0&#xA;rd/1jN/y9f8AT7j/AIJ5/av/ADcX9H/pW7/rGb/l6/6fcf8ABPP7V/5uL+j/ANK3f9Yzf8vX/T7j&#xA;/gnn9q/83F/R/wClbv8ArGb/AJev+n3H/BPP7V/5uL+j/wBK3f8AWM3/AC9f9PuP+Cef2r/zcX9H&#xA;/pW7/rGb/l6/6fcf8E8/tX/m4v6P/St3/WM3/L1/0+4/4J5/av8AzcX9H/pW7/rGb/l6/wCn3H/B&#xA;PP7V/wCbi/o/9K3f9Yzf8vX/AE+4/wCCef2r/wA3F/R/6Vu/6xm/5ev+n3H/AATz+1f+bi/o/wDS&#xA;t3/WM3/L1/0+4/4J5/av/Nxf0f8ApW7/AKxm/wCXr/p9x/wTz+1f+bi/o/8ASt3/AFjN/wAvX/T7&#xA;j/gnn9q/83F/R/6Vu/6xm/5ev+n3H/BPP7V/5uL+j/0rZr+X/wDyor67H/hv6r+k6/uvrfq/WOX/&#xA;ABX9a/a/4x5l6b8tfoq/x3vP9tfy1wH8xx+H14a4fjwf756jmxeNf//Z</xmpGImg:image>
               </rdf:li>
            </rdf:Alt>
         </xmp:Thumbnails>
      </rdf:Description>
      <rdf:Description rdf:about=""
            xmlns:dc="http://purl.org/dc/elements/1.1/">
         <dc:format>image/svg+xml</dc:format>
      </rdf:Description>
      <rdf:Description rdf:about=""
            xmlns:xmpTPg="http://ns.adobe.com/xap/1.0/t/pg/"
            xmlns:stDim="http://ns.adobe.com/xap/1.0/sType/Dimensions#"
            xmlns:xmpG="http://ns.adobe.com/xap/1.0/g/">
         <xmpTPg:MaxPageSize rdf:parseType="Resource">
            <stDim:w>217.832031</stDim:w>
            <stDim:h>192.414062</stDim:h>
            <stDim:unit>Points</stDim:unit>
         </xmpTPg:MaxPageSize>
         <xmpTPg:NPages>1</xmpTPg:NPages>
         <xmpTPg:HasVisibleTransparency>False</xmpTPg:HasVisibleTransparency>
         <xmpTPg:HasVisibleOverprint>False</xmpTPg:HasVisibleOverprint>
         <xmpTPg:PlateNames>
            <rdf:Seq>
               <rdf:li>Cyan</rdf:li>
               <rdf:li>Magenta</rdf:li>
               <rdf:li>Yellow</rdf:li>
               <rdf:li>Black</rdf:li>
            </rdf:Seq>
         </xmpTPg:PlateNames>
         <xmpTPg:SwatchGroups>
            <rdf:Seq>
               <rdf:li rdf:parseType="Resource">
                  <xmpG:groupName>Grupo de muestras por defecto</xmpG:groupName>
                  <xmpG:groupType>0</xmpG:groupType>
               </rdf:li>
            </rdf:Seq>
         </xmpTPg:SwatchGroups>
      </rdf:Description>
   </rdf:RDF>
</x:xmpmeta>
                                                                                                    
                                                                                                    
                                                                                                    
                                                                                                    
                                                                                                    
                                                                                                    
                                                                                                    
                                                                                                    
                                                                                                    
                                                                                                    
                                                                                                    
                                                                                                    
                                                                                                    
                                                                                                    
                                                                                                    
                                                                                                    
                                                                                                    
                                                                                                    
                                                                                                    
                                                                                                    
                           
<?xpacket end="w"?>
	</metadata>
<g>
	<path fill="#E41408" d="M14.123,192.414c-7.83-0.449-14.091-6.77-14.123-14.121c-0.001-2.545,0.692-5.14,1.937-7.702
		c15.665-37.824,40.476-72.169,62.422-91.477c21.657-21.79,40.45-28.543,37.392-68.508C101.364,4.671,103.628,0.01,108.914,0
		c5.253-0.043,11.881,4.845,16.232,11.578c30.064,44.031,22.528,68.761,32.017,90.959c6.679,21.943,30.383,41.356,58.023,68.85
		c1.74,1.995,2.651,4.355,2.646,6.906c-0.5,7.821-6.828,14.096-14.121,14.121C140.515,192.414,77.319,192.414,14.123,192.414"/>
</g>
<g>
	<path fill="#FFFFFF" d="M21.879,173.875c7.143-12.901,14.822-32.156,24.054-47.563c9.106-15.863,19.765-27.88,29.894-36.844
		c20.643-18.239,37.686-24.688,33.087-66.299c33.555,41.656,26.512,64.582,33.059,84.413c3.091,10.036,9.725,19.647,20.798,30.604
		c10.547,10.847,25.534,23.036,33.183,35.69C137.929,173.875,79.904,173.875,21.879,173.875"/>
</g>
<g>
	<path fill="#1C1D20" d="M77.352,102.414c-0.874,0.019-0.674,0.995-0.703,0.983c0.657,2.805-0.968,4.854-2.717,7.631
		c-1.438,0.642-1.481,1.126-1.473,1.115c-1.539,2.079-1.502,4.009-1.507,3.981c0.045,2.275,1.159,2.281,1.143,2.294
		c-1.139,1.794,0.405,2.151,0.36,2.188c-0.074,1.142-0.125,2.328-0.136,3.57c-0.007,0.589,0.411,1.077,0.917,1.088
		c1.219,0,2.438,0,3.656,0c0.514,0.006,0.81-0.684,0.73-1.485c-0.179-1.897-0.101-3.515,0.123-4.934
		c5.212-0.595,8.831,1.173,15.757,1.804c0.282,1.059,0.843,2.22,1.795,3.564c0.405,0.569,1.21,1.056,1.707,1.051
		c1.219,0,2.438,0,3.658,0c0.491-0.001,0.779-0.41,0.673-0.919c-0.253-1.055-0.426-2.081-0.536-3.092
		c-0.051,0.032,2.11-1.009,0.6-2.218c-0.018,0.012,1.533-0.59,1.552-2.911c0.038,0.004-0.104-1.851-1.379-3.226
		c0.016-0.006-0.018-0.436-1.181-0.528c-1.117-2.252-1.216-4.593-2.374-8.564c0.016,0.021-0.528-1.362-1.471-1.393
		C90.148,102.414,83.75,102.414,77.352,102.414"/>
</g>
<g>
	<path fill="#FFFFFF" d="M91.582,114.852c-3.054,0.003-6.075,0.004-9.143,0.004c0,0.762,0,1.523,0,2.285
		c3.052-0.003,6.072-0.004,9.139-0.004C91.574,116.375,91.582,115.613,91.582,114.852"/>
</g>
<g>
	<path fill="#FFFFFF" d="M78.268,104.699c-0.859,0.007-0.327,0.467-0.35,0.464c0.719,1.664-2.327,3.362-2.848,5.462
		c-0.471,1.395,0.913,0.921,0.907,0.906c3.466-1.44,9.597-1.412,9.635-1.278c-0.464-0.011,7.211,0.463,12.258,1.292
		c0.049,0.002,1.451,0.464,0.913-0.903c-1.704-1.897-2.015-3.066-2.213-5.322c0.013,0.007,0.001-0.604-0.934-0.62
		C89.847,104.699,84.058,104.699,78.268,104.699"/>
</g>
<g>
	<path fill="#1C1D20" d="M88.436,109.219c-1.229,0.027-0.944,1.408-0.984,1.392c0.922,3.951-1.37,6.839-3.835,10.752
		c-2.021,0.897-2.081,1.579-2.07,1.563c-2.171,2.927-2.12,5.645-2.127,5.606c0.063,3.2,1.635,3.202,1.613,3.22
		c-1.608,2.538,0.576,3.037,0.511,3.089c-0.104,1.613-0.177,3.289-0.193,5.046c-0.009,0.807,0.574,1.513,1.292,1.528
		c1.715,0,3.43,0,5.145,0c0.726,0.007,1.139-0.986,1.03-2.086c-0.253-2.679-0.143-4.961,0.172-6.962
		c7.339-0.837,12.436,1.654,22.19,2.543c0.397,1.493,1.188,3.132,2.533,5.029c0.555,0.781,1.703,1.481,2.404,1.476
		c1.716,0,3.432,0,5.147,0c0.69-0.002,1.1-0.593,0.955-1.29c-0.356-1.491-0.599-2.941-0.754-4.37
		c-0.071,0.046,2.96-1.419,0.841-3.132c-0.025,0.016,2.151-0.828,2.178-4.091c0.053,0.006-0.146-2.605-1.935-4.543
		c0.022-0.008-0.025-0.611-1.664-0.736c-1.576-3.174-1.716-6.471-3.346-12.064c0.023,0.029-0.746-1.927-2.064-1.97
		C106.463,109.219,97.45,109.219,88.436,109.219"/>
</g>
<g>
	<path fill="#FFFFFF" d="M108.471,126.672c-4.296,0.003-8.56,0.004-12.871,0.004c0.004,1.071-0.004,2.143-0.004,3.215
		c4.29,0,8.581,0,12.871,0C108.463,128.818,108.471,127.745,108.471,126.672"/>
</g>
<g>
	<path fill="#FFFFFF" d="M89.719,112.438c-1.204,0.01-0.458,0.656-0.488,0.651c1.017,2.346-3.272,4.737-4.009,7.696
		c-0.663,1.971,1.289,1.31,1.279,1.289c4.884-2.046,13.51-2.006,13.561-1.815c-0.656-0.016,10.149,0.655,17.27,1.835
		c0.069,0.003,2.043,0.646,1.294-1.285c-2.398-2.673-2.836-4.32-3.118-7.5c0.017,0.009,0.001-0.849-1.32-0.871
		C106.031,112.438,97.875,112.438,89.719,112.438"/>
</g>
<g>
	<path fill="#1C1D20" d="M104.626,120.036c-1.683,0.036-1.303,1.918-1.358,1.896c1.27,5.418-1.87,9.376-5.245,14.739
		c-2.767,1.222-2.851,2.15-2.835,2.129c-2.983,4.021-2.911,7.75-2.921,7.697c0.087,4.384,2.245,4.384,2.214,4.408
		c-2.208,3.467,0.783,4.16,0.695,4.23c-0.143,2.208-0.243,4.501-0.264,6.906c-0.013,1.115,0.791,2.066,1.768,2.088
		c2.352,0,4.703,0,7.055,0c0.988,0.01,1.555-1.33,1.404-2.852c-0.347-3.669-0.196-6.797,0.235-9.539
		c10.056-1.147,17.039,2.265,30.403,3.482c0.545,2.045,1.629,4.29,3.473,6.892c0.769,1.08,2.328,2.025,3.291,2.017
		c2.352,0,4.703,0,7.055,0c0.944-0.003,1.51-0.799,1.31-1.763c-0.487-2.041-0.819-4.025-1.031-5.979
		c-0.099,0.062,4.053-1.953,1.147-4.288c-0.034,0.022,2.949-1.131,2.985-5.603c0.073,0.007-0.2-3.574-2.652-6.238
		c0.03-0.012-0.033-0.834-2.281-0.995c-2.157-4.352-2.347-8.871-4.577-16.54c0.03,0.039-1.021-2.638-2.837-2.696
		C129.312,120.032,116.973,120.036,104.626,120.036"/>
</g>
<g>
	<path fill="#FFFFFF" d="M132.047,143.93c-5.893,0.006-11.72,0.008-17.641,0.008c0,1.47,0,2.94,0,4.41c5.879,0,11.758,0,17.637,0
		C132.039,146.875,132.047,145.402,132.047,143.93"/>
</g>
<g>
	<path fill="#FFFFFF" d="M106.379,124.438c-1.648,0.014-0.61,0.914-0.655,0.908c1.363,3.208-4.49,6.484-5.501,10.533
		c-0.916,2.692,1.758,1.797,1.746,1.771c6.687-2.807,18.51-2.753,18.581-2.492c-0.901-0.021,13.909,0.898,23.662,2.519
		c0.091,0.004,2.789,0.876,1.761-1.764c-3.281-3.658-3.894-5.915-4.271-10.26c0.024,0.014,0.003-1.183-1.81-1.215
		C128.72,124.438,117.55,124.438,106.379,124.438"/>
</g>
</svg>
